G04 Layer: TopSilkscreenLayer*
G04 EasyEDA v6.5.54, 2026-04-13 11:56:37*
G04 db6e4f6aa2294629b3d71e9135986276,81a6330f3d4149d2af66a0b9843494eb,10*
G04 Gerber Generator version 0.2*
G04 Scale: 100 percent, Rotated: No, Reflected: No *
G04 Dimensions in millimeters *
G04 leading zeros omitted , absolute positions ,4 integer and 5 decimal *
%FSLAX45Y45*%
%MOMM*%

%ADD10C,0.1524*%
%ADD11C,0.0800*%
%ADD12C,0.2540*%
%ADD13C,0.2000*%
%ADD14C,0.4000*%
%ADD15C,0.0113*%

%LPD*%
D10*
X1984954Y4532884D02*
G01*
X1981398Y4540250D01*
X1974032Y4547615D01*
X1966666Y4551171D01*
X1952188Y4551171D01*
X1944822Y4547615D01*
X1937710Y4540250D01*
X1934154Y4532884D01*
X1930344Y4521962D01*
X1930344Y4503928D01*
X1934154Y4493005D01*
X1937710Y4485639D01*
X1944822Y4478273D01*
X1952188Y4474718D01*
X1966666Y4474718D01*
X1974032Y4478273D01*
X1981398Y4485639D01*
X1984954Y4493005D01*
X2008830Y4536694D02*
G01*
X2016196Y4540250D01*
X2027118Y4551171D01*
X2027118Y4474718D01*
X2899354Y4507484D02*
G01*
X2895798Y4514850D01*
X2888432Y4522215D01*
X2881066Y4525771D01*
X2866588Y4525771D01*
X2859222Y4522215D01*
X2852110Y4514850D01*
X2848554Y4507484D01*
X2844744Y4496562D01*
X2844744Y4478528D01*
X2848554Y4467605D01*
X2852110Y4460239D01*
X2859222Y4452873D01*
X2866588Y4449318D01*
X2881066Y4449318D01*
X2888432Y4452873D01*
X2895798Y4460239D01*
X2899354Y4467605D01*
X2930596Y4525771D02*
G01*
X2970728Y4525771D01*
X2948884Y4496562D01*
X2959806Y4496562D01*
X2966918Y4493005D01*
X2970728Y4489450D01*
X2974284Y4478528D01*
X2974284Y4471162D01*
X2970728Y4460239D01*
X2963362Y4452873D01*
X2952440Y4449318D01*
X2941518Y4449318D01*
X2930596Y4452873D01*
X2927040Y4456684D01*
X2923230Y4463795D01*
X2454854Y4532884D02*
G01*
X2451298Y4540250D01*
X2443932Y4547615D01*
X2436566Y4551171D01*
X2422088Y4551171D01*
X2414722Y4547615D01*
X2407610Y4540250D01*
X2404054Y4532884D01*
X2400244Y4521962D01*
X2400244Y4503928D01*
X2404054Y4493005D01*
X2407610Y4485639D01*
X2414722Y4478273D01*
X2422088Y4474718D01*
X2436566Y4474718D01*
X2443932Y4478273D01*
X2451298Y4485639D01*
X2454854Y4493005D01*
X2482540Y4532884D02*
G01*
X2482540Y4536694D01*
X2486096Y4543805D01*
X2489652Y4547615D01*
X2497018Y4551171D01*
X2511496Y4551171D01*
X2518862Y4547615D01*
X2522418Y4543805D01*
X2526228Y4536694D01*
X2526228Y4529328D01*
X2522418Y4521962D01*
X2515306Y4511039D01*
X2478730Y4474718D01*
X2529784Y4474718D01*
X3293054Y4494784D02*
G01*
X3289498Y4502150D01*
X3282132Y4509515D01*
X3274766Y4513071D01*
X3260288Y4513071D01*
X3252922Y4509515D01*
X3245810Y4502150D01*
X3242254Y4494784D01*
X3238444Y4483862D01*
X3238444Y4465828D01*
X3242254Y4454905D01*
X3245810Y4447539D01*
X3252922Y4440173D01*
X3260288Y4436618D01*
X3274766Y4436618D01*
X3282132Y4440173D01*
X3289498Y4447539D01*
X3293054Y4454905D01*
X3353506Y4513071D02*
G01*
X3316930Y4462018D01*
X3371540Y4462018D01*
X3353506Y4513071D02*
G01*
X3353506Y4436618D01*
X1743654Y4367784D02*
G01*
X1740098Y4375150D01*
X1732732Y4382515D01*
X1725366Y4386071D01*
X1710888Y4386071D01*
X1703522Y4382515D01*
X1696410Y4375150D01*
X1692854Y4367784D01*
X1689044Y4356862D01*
X1689044Y4338828D01*
X1692854Y4327905D01*
X1696410Y4320539D01*
X1703522Y4313173D01*
X1710888Y4309618D01*
X1725366Y4309618D01*
X1732732Y4313173D01*
X1740098Y4320539D01*
X1743654Y4327905D01*
X1811218Y4375150D02*
G01*
X1807662Y4382515D01*
X1796740Y4386071D01*
X1789374Y4386071D01*
X1778452Y4382515D01*
X1771340Y4371594D01*
X1767530Y4353305D01*
X1767530Y4335018D01*
X1771340Y4320539D01*
X1778452Y4313173D01*
X1789374Y4309618D01*
X1793184Y4309618D01*
X1804106Y4313173D01*
X1811218Y4320539D01*
X1815028Y4331462D01*
X1815028Y4335018D01*
X1811218Y4345939D01*
X1804106Y4353305D01*
X1793184Y4356862D01*
X1789374Y4356862D01*
X1778452Y4353305D01*
X1771340Y4345939D01*
X1767530Y4335018D01*
X2683454Y4329684D02*
G01*
X2679898Y4337050D01*
X2672532Y4344415D01*
X2665166Y4347971D01*
X2650688Y4347971D01*
X2643322Y4344415D01*
X2636210Y4337050D01*
X2632654Y4329684D01*
X2628844Y4318762D01*
X2628844Y4300728D01*
X2632654Y4289805D01*
X2636210Y4282439D01*
X2643322Y4275073D01*
X2650688Y4271518D01*
X2665166Y4271518D01*
X2672532Y4275073D01*
X2679898Y4282439D01*
X2683454Y4289805D01*
X2758384Y4347971D02*
G01*
X2722062Y4271518D01*
X2707330Y4347971D02*
G01*
X2758384Y4347971D01*
X1692910Y5650484D02*
G01*
X1689100Y5657850D01*
X1681987Y5665215D01*
X1674621Y5668771D01*
X1660144Y5668771D01*
X1652778Y5665215D01*
X1645665Y5657850D01*
X1641855Y5650484D01*
X1638300Y5639562D01*
X1638300Y5621528D01*
X1641855Y5610605D01*
X1645665Y5603239D01*
X1652778Y5595873D01*
X1660144Y5592318D01*
X1674621Y5592318D01*
X1681987Y5595873D01*
X1689100Y5603239D01*
X1692910Y5610605D01*
X1760473Y5668771D02*
G01*
X1724152Y5668771D01*
X1720595Y5636005D01*
X1724152Y5639562D01*
X1735073Y5643371D01*
X1745995Y5643371D01*
X1756918Y5639562D01*
X1764029Y5632450D01*
X1767839Y5621528D01*
X1767839Y5614162D01*
X1764029Y5603239D01*
X1756918Y5595873D01*
X1745995Y5592318D01*
X1735073Y5592318D01*
X1724152Y5595873D01*
X1720595Y5599684D01*
X1716786Y5606795D01*
X1667510Y4875784D02*
G01*
X1663700Y4883150D01*
X1656587Y4890515D01*
X1649221Y4894071D01*
X1634744Y4894071D01*
X1627378Y4890515D01*
X1620265Y4883150D01*
X1616455Y4875784D01*
X1612900Y4864862D01*
X1612900Y4846828D01*
X1616455Y4835905D01*
X1620265Y4828539D01*
X1627378Y4821173D01*
X1634744Y4817618D01*
X1649221Y4817618D01*
X1656587Y4821173D01*
X1663700Y4828539D01*
X1667510Y4835905D01*
X1709673Y4894071D02*
G01*
X1698752Y4890515D01*
X1695195Y4883150D01*
X1695195Y4875784D01*
X1698752Y4868671D01*
X1705863Y4864862D01*
X1720595Y4861305D01*
X1731518Y4857750D01*
X1738629Y4850384D01*
X1742439Y4843018D01*
X1742439Y4832095D01*
X1738629Y4824984D01*
X1735073Y4821173D01*
X1724152Y4817618D01*
X1709673Y4817618D01*
X1698752Y4821173D01*
X1695195Y4824984D01*
X1691386Y4832095D01*
X1691386Y4843018D01*
X1695195Y4850384D01*
X1702307Y4857750D01*
X1713229Y4861305D01*
X1727707Y4864862D01*
X1735073Y4868671D01*
X1738629Y4875784D01*
X1738629Y4883150D01*
X1735073Y4890515D01*
X1724152Y4894071D01*
X1709673Y4894071D01*
X1562100Y6278371D02*
G01*
X1562100Y6201918D01*
X1562100Y6278371D02*
G01*
X1594865Y6278371D01*
X1605787Y6274815D01*
X1609344Y6271005D01*
X1612900Y6263894D01*
X1612900Y6252971D01*
X1609344Y6245605D01*
X1605787Y6242050D01*
X1594865Y6238239D01*
X1562100Y6238239D01*
X1637029Y6263894D02*
G01*
X1644395Y6267450D01*
X1655063Y6278371D01*
X1655063Y6201918D01*
X3048000Y6278371D02*
G01*
X3048000Y6201918D01*
X3048000Y6278371D02*
G01*
X3080765Y6278371D01*
X3091688Y6274815D01*
X3095243Y6271005D01*
X3098800Y6263894D01*
X3098800Y6252971D01*
X3095243Y6245605D01*
X3091688Y6242050D01*
X3080765Y6238239D01*
X3048000Y6238239D01*
X3126486Y6260084D02*
G01*
X3126486Y6263894D01*
X3130295Y6271005D01*
X3133852Y6274815D01*
X3140963Y6278371D01*
X3155695Y6278371D01*
X3162808Y6274815D01*
X3166618Y6271005D01*
X3170174Y6263894D01*
X3170174Y6256528D01*
X3166618Y6249162D01*
X3159252Y6238239D01*
X3122929Y6201918D01*
X3173729Y6201918D01*
X4533900Y6278371D02*
G01*
X4533900Y6201918D01*
X4533900Y6278371D02*
G01*
X4566665Y6278371D01*
X4577588Y6274815D01*
X4581143Y6271005D01*
X4584700Y6263894D01*
X4584700Y6252971D01*
X4581143Y6245605D01*
X4577588Y6242050D01*
X4566665Y6238239D01*
X4533900Y6238239D01*
X4616195Y6278371D02*
G01*
X4656074Y6278371D01*
X4634229Y6249162D01*
X4645152Y6249162D01*
X4652518Y6245605D01*
X4656074Y6242050D01*
X4659629Y6231128D01*
X4659629Y6223762D01*
X4656074Y6212839D01*
X4648708Y6205473D01*
X4637786Y6201918D01*
X4626863Y6201918D01*
X4616195Y6205473D01*
X4612386Y6209284D01*
X4608829Y6216395D01*
X4025900Y6100571D02*
G01*
X4025900Y6024118D01*
X4025900Y6100571D02*
G01*
X4058665Y6100571D01*
X4069588Y6097015D01*
X4073143Y6093205D01*
X4076700Y6086094D01*
X4076700Y6078728D01*
X4073143Y6071362D01*
X4069588Y6067805D01*
X4058665Y6064250D01*
X4025900Y6064250D01*
X4051300Y6064250D02*
G01*
X4076700Y6024118D01*
X4100829Y6086094D02*
G01*
X4108195Y6089650D01*
X4118863Y6100571D01*
X4118863Y6024118D01*
X4013200Y5617971D02*
G01*
X4013200Y5541518D01*
X4013200Y5617971D02*
G01*
X4045965Y5617971D01*
X4056888Y5614415D01*
X4060443Y5610605D01*
X4064000Y5603494D01*
X4064000Y5596128D01*
X4060443Y5588762D01*
X4056888Y5585205D01*
X4045965Y5581650D01*
X4013200Y5581650D01*
X4038600Y5581650D02*
G01*
X4064000Y5541518D01*
X4091686Y5599684D02*
G01*
X4091686Y5603494D01*
X4095495Y5610605D01*
X4099052Y5614415D01*
X4106163Y5617971D01*
X4120895Y5617971D01*
X4128008Y5614415D01*
X4131818Y5610605D01*
X4135374Y5603494D01*
X4135374Y5596128D01*
X4131818Y5588762D01*
X4124452Y5577839D01*
X4088129Y5541518D01*
X4138929Y5541518D01*
X4025900Y5109971D02*
G01*
X4025900Y5033518D01*
X4025900Y5109971D02*
G01*
X4058665Y5109971D01*
X4069588Y5106415D01*
X4073143Y5102605D01*
X4076700Y5095494D01*
X4076700Y5088128D01*
X4073143Y5080762D01*
X4069588Y5077205D01*
X4058665Y5073650D01*
X4025900Y5073650D01*
X4051300Y5073650D02*
G01*
X4076700Y5033518D01*
X4108195Y5109971D02*
G01*
X4148074Y5109971D01*
X4126229Y5080762D01*
X4137152Y5080762D01*
X4144518Y5077205D01*
X4148074Y5073650D01*
X4151629Y5062728D01*
X4151629Y5055362D01*
X4148074Y5044439D01*
X4140708Y5037073D01*
X4129786Y5033518D01*
X4118863Y5033518D01*
X4108195Y5037073D01*
X4104386Y5040884D01*
X4100829Y5047995D01*
X4076700Y4627371D02*
G01*
X4076700Y4550918D01*
X4076700Y4627371D02*
G01*
X4109465Y4627371D01*
X4120388Y4623815D01*
X4123943Y4620005D01*
X4127500Y4612894D01*
X4127500Y4605528D01*
X4123943Y4598162D01*
X4120388Y4594605D01*
X4109465Y4591050D01*
X4076700Y4591050D01*
X4102100Y4591050D02*
G01*
X4127500Y4550918D01*
X4187952Y4627371D02*
G01*
X4151629Y4576318D01*
X4206240Y4576318D01*
X4187952Y4627371D02*
G01*
X4187952Y4550918D01*
X5092700Y4868671D02*
G01*
X5092700Y4792218D01*
X5092700Y4868671D02*
G01*
X5125465Y4868671D01*
X5136388Y4865115D01*
X5139943Y4861305D01*
X5143500Y4854194D01*
X5143500Y4846828D01*
X5139943Y4839462D01*
X5136388Y4835905D01*
X5125465Y4832350D01*
X5092700Y4832350D01*
X5118100Y4832350D02*
G01*
X5143500Y4792218D01*
X5211318Y4868671D02*
G01*
X5174995Y4868671D01*
X5171186Y4835905D01*
X5174995Y4839462D01*
X5185663Y4843271D01*
X5196586Y4843271D01*
X5207508Y4839462D01*
X5214874Y4832350D01*
X5218429Y4821428D01*
X5218429Y4814062D01*
X5214874Y4803139D01*
X5207508Y4795773D01*
X5196586Y4792218D01*
X5185663Y4792218D01*
X5174995Y4795773D01*
X5171186Y4799584D01*
X5167629Y4806695D01*
X2730500Y4906624D02*
G01*
X2730500Y4852268D01*
X2734056Y4841346D01*
X2741422Y4833980D01*
X2752343Y4830424D01*
X2759709Y4830424D01*
X2770377Y4833980D01*
X2777743Y4841346D01*
X2781300Y4852268D01*
X2781300Y4906624D01*
X2805429Y4892146D02*
G01*
X2812795Y4895702D01*
X2823463Y4906624D01*
X2823463Y4830424D01*
G36*
X1409700Y5778500D02*
G01*
X1409700Y5664200D01*
X1498600Y5664200D01*
X1493520Y5669280D01*
X1493520Y5707380D01*
X1422400Y5778500D01*
G37*
G36*
X1412240Y5565140D02*
G01*
X1412240Y5450840D01*
X1424940Y5450840D01*
X1496060Y5521960D01*
X1496060Y5560060D01*
X1501140Y5565140D01*
G37*
G36*
X1384300Y4978400D02*
G01*
X1384300Y4864100D01*
X1473200Y4864100D01*
X1468120Y4869180D01*
X1468120Y4907280D01*
X1397000Y4978400D01*
G37*
G36*
X1386840Y4765040D02*
G01*
X1386840Y4650740D01*
X1399540Y4650740D01*
X1470660Y4721860D01*
X1470660Y4759960D01*
X1475740Y4765040D01*
G37*
D11*
X1874520Y4580889D02*
G01*
X2189479Y4580889D01*
X1871979Y4740910D02*
G01*
X2192020Y4740910D01*
X1999650Y4580889D02*
G01*
X2000023Y4740910D01*
X2750820Y4555489D02*
G01*
X3065779Y4555489D01*
X2748279Y4715510D02*
G01*
X3068320Y4715510D01*
X2875950Y4555489D02*
G01*
X2876323Y4715510D01*
D12*
X2448481Y4589942D02*
G01*
X2368483Y4589942D01*
X2504526Y4589896D02*
G01*
X2584523Y4589896D01*
X2448481Y4731910D02*
G01*
X2368483Y4731910D01*
X2504526Y4731862D02*
G01*
X2584523Y4731862D01*
X2337508Y4620925D02*
G01*
X2337508Y4700930D01*
X2615501Y4700877D02*
G01*
X2615501Y4620874D01*
X3286681Y4564542D02*
G01*
X3206683Y4564542D01*
X3342726Y4564496D02*
G01*
X3422723Y4564496D01*
X3286681Y4706510D02*
G01*
X3206683Y4706510D01*
X3342726Y4706462D02*
G01*
X3422723Y4706462D01*
X3175708Y4595525D02*
G01*
X3175708Y4675530D01*
X3453701Y4675477D02*
G01*
X3453701Y4595474D01*
X1978581Y4259742D02*
G01*
X1898583Y4259742D01*
X2034626Y4259696D02*
G01*
X2114623Y4259696D01*
X1978581Y4401710D02*
G01*
X1898583Y4401710D01*
X2034626Y4401662D02*
G01*
X2114623Y4401662D01*
X1867608Y4290725D02*
G01*
X1867608Y4370730D01*
X2145601Y4370677D02*
G01*
X2145601Y4290674D01*
X2423081Y4259742D02*
G01*
X2343083Y4259742D01*
X2479126Y4259696D02*
G01*
X2559123Y4259696D01*
X2423081Y4401710D02*
G01*
X2343083Y4401710D01*
X2479126Y4401662D02*
G01*
X2559123Y4401662D01*
X2312108Y4290725D02*
G01*
X2312108Y4370730D01*
X2590101Y4370677D02*
G01*
X2590101Y4290674D01*
X1074000Y5676900D02*
G01*
X1074000Y5747600D01*
X1168400Y5842000D01*
X1524000Y5842000D01*
X1524000Y5689600D01*
X1524000Y5549900D02*
G01*
X1524000Y5392000D01*
X1161199Y5392000D01*
X1074000Y5479199D01*
X1074000Y5549900D01*
X1048600Y4876800D02*
G01*
X1048600Y4947500D01*
X1143000Y5041900D01*
X1498600Y5041900D01*
X1498600Y4889500D01*
X1498600Y4749800D02*
G01*
X1498600Y4591900D01*
X1135799Y4591900D01*
X1048600Y4679099D01*
X1048600Y4749800D01*
X2163699Y7016292D02*
G01*
X1163701Y7016292D01*
X2164232Y6401866D02*
G01*
X2203704Y6384500D01*
X2203704Y6484500D01*
X2164232Y6464807D01*
X2163699Y6334500D02*
G01*
X1163701Y6334500D01*
X2163699Y6334500D02*
G01*
X2163699Y7094499D01*
X1163701Y6334500D02*
G01*
X1163701Y7094499D01*
X2163699Y7094499D02*
G01*
X1163701Y7094499D01*
X2163699Y6554419D02*
G01*
X1163701Y6554419D01*
X3598799Y7016292D02*
G01*
X2598800Y7016292D01*
X3599332Y6401866D02*
G01*
X3638804Y6384500D01*
X3638804Y6484500D01*
X3599332Y6464807D01*
X3598799Y6334500D02*
G01*
X2598800Y6334500D01*
X3598799Y6334500D02*
G01*
X3598799Y7094499D01*
X2598800Y6334500D02*
G01*
X2598800Y7094499D01*
X3598799Y7094499D02*
G01*
X2598800Y7094499D01*
X3598799Y6554419D02*
G01*
X2598800Y6554419D01*
X5084699Y7028992D02*
G01*
X4084700Y7028992D01*
X5085232Y6414566D02*
G01*
X5124704Y6397200D01*
X5124704Y6497200D01*
X5085232Y6477507D01*
X5084699Y6347200D02*
G01*
X4084700Y6347200D01*
X5084699Y6347200D02*
G01*
X5084699Y7107199D01*
X4084700Y6347200D02*
G01*
X4084700Y7107199D01*
X5084699Y7107199D02*
G01*
X4084700Y7107199D01*
X5084699Y6567119D02*
G01*
X4084700Y6567119D01*
X3822700Y5930900D02*
G01*
X3797300Y5930900D01*
X4330700Y5930900D02*
G01*
X4356100Y5930900D01*
X3822700Y5930900D02*
G01*
X3822700Y6007100D01*
X3822700Y5854700D02*
G01*
X3822700Y5930900D01*
X4330700Y5854700D02*
G01*
X3822700Y5854700D01*
X4330700Y5930900D02*
G01*
X4330700Y5854700D01*
X4330700Y6007100D02*
G01*
X4330700Y5930900D01*
X3822700Y6007100D02*
G01*
X4330700Y6007100D01*
X3822700Y5422900D02*
G01*
X3797300Y5422900D01*
X4330700Y5422900D02*
G01*
X4356100Y5422900D01*
X3822700Y5422900D02*
G01*
X3822700Y5499100D01*
X3822700Y5346700D02*
G01*
X3822700Y5422900D01*
X4330700Y5346700D02*
G01*
X3822700Y5346700D01*
X4330700Y5422900D02*
G01*
X4330700Y5346700D01*
X4330700Y5499100D02*
G01*
X4330700Y5422900D01*
X3822700Y5499100D02*
G01*
X4330700Y5499100D01*
X3822700Y4914900D02*
G01*
X3797300Y4914900D01*
X4330700Y4914900D02*
G01*
X4356100Y4914900D01*
X3822700Y4914900D02*
G01*
X3822700Y4991100D01*
X3822700Y4838700D02*
G01*
X3822700Y4914900D01*
X4330700Y4838700D02*
G01*
X3822700Y4838700D01*
X4330700Y4914900D02*
G01*
X4330700Y4838700D01*
X4330700Y4991100D02*
G01*
X4330700Y4914900D01*
X3822700Y4991100D02*
G01*
X4330700Y4991100D01*
X3822700Y4419600D02*
G01*
X3797300Y4419600D01*
X4330700Y4419600D02*
G01*
X4356100Y4419600D01*
X3822700Y4419600D02*
G01*
X3822700Y4495800D01*
X3822700Y4343400D02*
G01*
X3822700Y4419600D01*
X4330700Y4343400D02*
G01*
X3822700Y4343400D01*
X4330700Y4419600D02*
G01*
X4330700Y4343400D01*
X4330700Y4495800D02*
G01*
X4330700Y4419600D01*
X3822700Y4495800D02*
G01*
X4330700Y4495800D01*
X4927600Y4572000D02*
G01*
X4927600Y4546600D01*
X4927600Y5080000D02*
G01*
X4927600Y5105400D01*
X4927600Y4572000D02*
G01*
X4851400Y4572000D01*
X5003800Y4572000D02*
G01*
X4927600Y4572000D01*
X5003800Y5080000D02*
G01*
X5003800Y4572000D01*
X4927600Y5080000D02*
G01*
X5003800Y5080000D01*
X4851400Y5080000D02*
G01*
X4927600Y5080000D01*
X4851400Y4572000D02*
G01*
X4851400Y5080000D01*
X2470038Y5460690D02*
G01*
X2245893Y5460690D01*
X2808886Y5460690D02*
G01*
X2702925Y5460690D01*
X3054553Y5460690D02*
G01*
X3041749Y5460690D01*
X3054553Y5460690D02*
G01*
X3265906Y5460690D01*
X3265906Y4970724D01*
X2245893Y4970724D01*
X2245893Y5450733D01*
D13*
X3054553Y5630666D02*
G01*
X3054553Y5460690D01*
X2456510Y5630666D02*
G01*
X2456510Y5460690D01*
X2798241Y5630666D02*
G01*
X2798241Y5490687D01*
X2713558Y5630666D02*
G01*
X2713558Y5490687D01*
D12*
G75*
G01*
X2584519Y4731863D02*
G02*
X2615501Y4700877I0J-30983D01*
G75*
G01*
X2615501Y4620880D02*
G02*
X2584519Y4589897I-30982J0D01*
G75*
G01*
X2368489Y4589943D02*
G02*
X2337509Y4620925I3J30982D01*
G75*
G01*
X2337509Y4700923D02*
G02*
X2368489Y4731911I30983J5D01*
G75*
G01*
X3422719Y4706463D02*
G02*
X3453701Y4675477I0J-30983D01*
G75*
G01*
X3453701Y4595480D02*
G02*
X3422719Y4564497I-30982J0D01*
G75*
G01*
X3206689Y4564543D02*
G02*
X3175709Y4595525I3J30982D01*
G75*
G01*
X3175709Y4675523D02*
G02*
X3206689Y4706511I30983J5D01*
G75*
G01*
X2114619Y4401663D02*
G02*
X2145601Y4370677I0J-30983D01*
G75*
G01*
X2145601Y4290680D02*
G02*
X2114619Y4259697I-30982J0D01*
G75*
G01*
X1898589Y4259743D02*
G02*
X1867609Y4290725I3J30982D01*
G75*
G01*
X1867609Y4370723D02*
G02*
X1898589Y4401711I30983J5D01*
G75*
G01*
X2559119Y4401663D02*
G02*
X2590101Y4370677I0J-30983D01*
G75*
G01*
X2590101Y4290680D02*
G02*
X2559119Y4259697I-30982J0D01*
G75*
G01*
X2343089Y4259743D02*
G02*
X2312109Y4290725I3J30982D01*
G75*
G01*
X2312109Y4370723D02*
G02*
X2343089Y4401711I30983J5D01*
G75*
G01*
X1122680Y5541772D02*
G03*
X1494536Y5544566I185374J75076D01*
G75*
G01*
X1493520Y5685028D02*
G03*
X1121664Y5682234I-185374J-75076D01*
G75*
G01*
X1097280Y4741672D02*
G03*
X1469136Y4744466I185374J75076D01*
G75*
G01*
X1468120Y4884928D02*
G03*
X1096264Y4882134I-185374J-75076D01*
D14*
G75*
G01*
X3205988Y5584591D02*
G03*
X3205480Y5584591I-254J19999D01*
M02*
