M48
METRIC,LZ,000.000
;FILE_FORMAT=3:3
;TYPE=PLATED
;Layer: PTH_Through
;EasyEDA v6.5.54, 2026-04-13 11:56:37
;db6e4f6aa2294629b3d71e9135986276,81a6330f3d4149d2af66a0b9843494eb,10
;Gerber Generator version 0.2
;Holesize 1 = 0.305 mm
T01C0.305
;Holesize 2 = 0.900 mm
T02C0.900
;Holesize 3 = 1.301 mm
T03C1.301
%
G05
G90
T01
X022883Y046983
X034893Y046094
X026098Y043307
T02
X036957Y059309
X044577Y059309
X036957Y054229
X044577Y054229
X036957Y049149
X044577Y049149
X036957Y044196
X044577Y044196
X049276Y044450
X049276Y052070
T03
X019141Y067945
X014133Y067945
X033492Y067945
X028484Y067945
X048351Y068072
X043343Y068072
X030945Y057807
X029253Y054207
X027559Y057807
X025865Y054208
X024173Y057807
M30
