G04 Layer: BottomLayer*
G04 EasyEDA v6.5.54, 2026-04-13 11:56:37*
G04 db6e4f6aa2294629b3d71e9135986276,81a6330f3d4149d2af66a0b9843494eb,10*
G04 Gerber Generator version 0.2*
G04 Scale: 100 percent, Rotated: No, Reflected: No *
G04 Dimensions in millimeters *
G04 leading zeros omitted , absolute positions ,4 integer and 5 decimal *
%FSLAX45Y45*%
%MOMM*%

%ADD10C,0.2540*%
%ADD11C,2.0000*%
%ADD12C,1.8796*%
%ADD13R,2.0000X2.0000*%
%ADD14C,0.6096*%
%ADD15C,0.0126*%

%LPD*%
G36*
X1339189Y4225798D02*
G01*
X1310182Y4226814D01*
X1282293Y4229709D01*
X1254658Y4234484D01*
X1227378Y4241139D01*
X1200658Y4249674D01*
X1174546Y4259986D01*
X1149197Y4272076D01*
X1124762Y4285843D01*
X1101344Y4301236D01*
X1078992Y4318203D01*
X1057859Y4336694D01*
X1037996Y4356557D01*
X1019606Y4377690D01*
X1002639Y4400092D01*
X987298Y4423562D01*
X973531Y4448048D01*
X961542Y4473397D01*
X951230Y4499508D01*
X942797Y4526229D01*
X936142Y4553508D01*
X931418Y4581194D01*
X928573Y4609084D01*
X927608Y4637379D01*
X927608Y6826910D01*
X928624Y6855866D01*
X931519Y6883806D01*
X936294Y6911441D01*
X942949Y6938721D01*
X951484Y6965442D01*
X961796Y6991553D01*
X973886Y7016851D01*
X987653Y7041337D01*
X1003046Y7064756D01*
X1020013Y7087108D01*
X1038504Y7108240D01*
X1058367Y7128052D01*
X1079500Y7146493D01*
X1101902Y7163409D01*
X1125372Y7178802D01*
X1149858Y7192518D01*
X1175207Y7204557D01*
X1201318Y7214819D01*
X1228039Y7223302D01*
X1255318Y7229906D01*
X1283004Y7234681D01*
X1310894Y7237526D01*
X1339189Y7238492D01*
X4833010Y7238492D01*
X4861966Y7237475D01*
X4889906Y7234580D01*
X4917541Y7229805D01*
X4944821Y7223099D01*
X4971542Y7214616D01*
X4997653Y7204303D01*
X5022951Y7192213D01*
X5047437Y7178446D01*
X5070856Y7163053D01*
X5093208Y7146036D01*
X5114340Y7127595D01*
X5134152Y7107732D01*
X5152593Y7086549D01*
X5169560Y7064197D01*
X5184902Y7040727D01*
X5198618Y7016242D01*
X5210657Y6990892D01*
X5220919Y6964781D01*
X5229402Y6938009D01*
X5236006Y6910781D01*
X5240782Y6883095D01*
X5243626Y6855206D01*
X5244592Y6826910D01*
X5244592Y4637379D01*
X5243576Y4608423D01*
X5240680Y4580483D01*
X5235905Y4552848D01*
X5229199Y4525568D01*
X5220716Y4498848D01*
X5210403Y4472736D01*
X5198313Y4447387D01*
X5184546Y4422952D01*
X5169154Y4399534D01*
X5152186Y4377182D01*
X5133695Y4356049D01*
X5113832Y4336186D01*
X5092700Y4317796D01*
X5070297Y4300829D01*
X5046827Y4285488D01*
X5022342Y4271721D01*
X4996992Y4259732D01*
X4970881Y4249420D01*
X4944110Y4240987D01*
X4916881Y4234332D01*
X4889195Y4229608D01*
X4861306Y4226763D01*
X4833010Y4225798D01*
G37*

%LPC*%
G36*
X2609850Y4274362D02*
G01*
X2619603Y4275226D01*
X2629103Y4277766D01*
X2637993Y4281932D01*
X2646070Y4287570D01*
X2652979Y4294479D01*
X2658618Y4302556D01*
X2662783Y4311446D01*
X2665323Y4320946D01*
X2666187Y4330700D01*
X2665323Y4340504D01*
X2662783Y4350004D01*
X2658618Y4358894D01*
X2652979Y4366920D01*
X2646070Y4373880D01*
X2637993Y4379518D01*
X2629103Y4383684D01*
X2619603Y4386224D01*
X2611577Y4386884D01*
X2608173Y4387799D01*
X2605278Y4389831D01*
X2489657Y4505502D01*
X2487422Y4508804D01*
X2486660Y4512665D01*
X2486660Y5318455D01*
X2487676Y5322874D01*
X2490470Y5326380D01*
X2494483Y5328361D01*
X2499004Y5328412D01*
X2503068Y5326481D01*
X2514955Y5317134D01*
X2527960Y5309311D01*
X2541828Y5303062D01*
X2556357Y5298541D01*
X2571292Y5295798D01*
X2586482Y5294884D01*
X2601671Y5295798D01*
X2616606Y5298541D01*
X2631135Y5303062D01*
X2637434Y5305907D01*
X2641447Y5306822D01*
X2645410Y5306060D01*
X2648813Y5303824D01*
X3559962Y4392676D01*
X3566210Y4387545D01*
X3572865Y4383989D01*
X3577539Y4382566D01*
X3580333Y4381246D01*
X3582568Y4379163D01*
X3584092Y4376521D01*
X3586784Y4369511D01*
X3593795Y4356506D01*
X3602329Y4344466D01*
X3612235Y4333544D01*
X3623462Y4323943D01*
X3635756Y4315815D01*
X3648964Y4309211D01*
X3662883Y4304284D01*
X3677310Y4301134D01*
X3691991Y4299762D01*
X3706774Y4300220D01*
X3721354Y4302506D01*
X3735527Y4306570D01*
X3749141Y4312310D01*
X3761892Y4319676D01*
X3773678Y4328566D01*
X3784295Y4338828D01*
X3793540Y4350359D01*
X3801313Y4362907D01*
X3807460Y4376318D01*
X3811930Y4390339D01*
X3814673Y4404868D01*
X3815587Y4419600D01*
X3814673Y4434332D01*
X3811930Y4448860D01*
X3807460Y4462881D01*
X3806037Y4465980D01*
X3805123Y4469993D01*
X3805834Y4474006D01*
X3808120Y4477410D01*
X4204004Y4873345D01*
X4207306Y4875530D01*
X4211218Y4876292D01*
X4337405Y4876292D01*
X4341368Y4875479D01*
X4344670Y4873193D01*
X4346854Y4869789D01*
X4348784Y4864811D01*
X4355795Y4851806D01*
X4364329Y4839766D01*
X4374235Y4828844D01*
X4385462Y4819243D01*
X4397756Y4811115D01*
X4410964Y4804511D01*
X4424883Y4799584D01*
X4439310Y4796434D01*
X4453991Y4795062D01*
X4468774Y4795520D01*
X4483354Y4797806D01*
X4497527Y4801870D01*
X4511141Y4807610D01*
X4523892Y4814976D01*
X4535678Y4823866D01*
X4546295Y4834128D01*
X4555540Y4845659D01*
X4563313Y4858207D01*
X4569460Y4871618D01*
X4573930Y4885639D01*
X4576673Y4900168D01*
X4577588Y4914900D01*
X4576673Y4929632D01*
X4573930Y4944160D01*
X4569460Y4958181D01*
X4563313Y4971592D01*
X4555540Y4984140D01*
X4546295Y4995672D01*
X4535678Y5005933D01*
X4523892Y5014823D01*
X4511141Y5022189D01*
X4497527Y5027930D01*
X4483354Y5031994D01*
X4468774Y5034280D01*
X4453991Y5034686D01*
X4439310Y5033365D01*
X4424883Y5030216D01*
X4410964Y5025288D01*
X4397756Y5018684D01*
X4388612Y5012639D01*
X4384598Y5011064D01*
X4380230Y5011369D01*
X4376420Y5013401D01*
X4373778Y5016906D01*
X4372864Y5021122D01*
X4372864Y5316677D01*
X4373778Y5320893D01*
X4376420Y5324398D01*
X4380230Y5326430D01*
X4384598Y5326735D01*
X4388612Y5325160D01*
X4397756Y5319115D01*
X4410964Y5312511D01*
X4424883Y5307584D01*
X4439310Y5304434D01*
X4453991Y5303062D01*
X4468774Y5303520D01*
X4483354Y5305806D01*
X4497527Y5309870D01*
X4511141Y5315610D01*
X4523892Y5322976D01*
X4535678Y5331866D01*
X4546295Y5342128D01*
X4555540Y5353659D01*
X4563313Y5366207D01*
X4569460Y5379618D01*
X4573930Y5393639D01*
X4576673Y5408168D01*
X4577588Y5422900D01*
X4576673Y5437632D01*
X4573930Y5452160D01*
X4569460Y5466181D01*
X4563313Y5479592D01*
X4555540Y5492140D01*
X4546295Y5503672D01*
X4535678Y5513933D01*
X4523892Y5522823D01*
X4511141Y5530189D01*
X4497527Y5535930D01*
X4483354Y5539994D01*
X4468774Y5542280D01*
X4453991Y5542686D01*
X4439310Y5541365D01*
X4424883Y5538216D01*
X4410964Y5533288D01*
X4397756Y5526684D01*
X4388612Y5520639D01*
X4384598Y5519064D01*
X4380230Y5519369D01*
X4376420Y5521401D01*
X4373778Y5524906D01*
X4372864Y5529122D01*
X4372864Y5824677D01*
X4373778Y5828893D01*
X4376420Y5832398D01*
X4380230Y5834430D01*
X4384598Y5834735D01*
X4388612Y5833160D01*
X4397756Y5827115D01*
X4404360Y5823813D01*
X4404360Y5877560D01*
X4383024Y5877560D01*
X4379112Y5878322D01*
X4375861Y5880557D01*
X4373626Y5883808D01*
X4372864Y5887720D01*
X4372864Y5974080D01*
X4373626Y5977991D01*
X4375861Y5981242D01*
X4379112Y5983478D01*
X4383024Y5984240D01*
X4404360Y5984240D01*
X4404360Y6037986D01*
X4397756Y6034684D01*
X4388612Y6028639D01*
X4384598Y6027064D01*
X4380230Y6027369D01*
X4376420Y6029401D01*
X4373778Y6032906D01*
X4372864Y6037122D01*
X4372864Y6680200D01*
X4373575Y6684009D01*
X4375708Y6687261D01*
X4378858Y6689496D01*
X4392777Y6695744D01*
X4405782Y6703618D01*
X4417720Y6712966D01*
X4428490Y6723735D01*
X4437837Y6735673D01*
X4445711Y6748678D01*
X4451959Y6762546D01*
X4456480Y6777075D01*
X4459224Y6792010D01*
X4460138Y6807200D01*
X4459224Y6822389D01*
X4456480Y6837324D01*
X4451959Y6851853D01*
X4445711Y6865721D01*
X4437837Y6878726D01*
X4428490Y6890664D01*
X4417720Y6901434D01*
X4405782Y6910781D01*
X4392777Y6918655D01*
X4378909Y6924903D01*
X4364380Y6929424D01*
X4349445Y6932168D01*
X4334256Y6933082D01*
X4319066Y6932168D01*
X4304131Y6929424D01*
X4289602Y6924903D01*
X4275734Y6918655D01*
X4262729Y6910781D01*
X4250791Y6901434D01*
X4240022Y6890664D01*
X4230674Y6878726D01*
X4222800Y6865721D01*
X4216552Y6851853D01*
X4212031Y6837324D01*
X4209288Y6822389D01*
X4208373Y6807200D01*
X4209288Y6792010D01*
X4212031Y6777075D01*
X4216552Y6762546D01*
X4222800Y6748678D01*
X4230674Y6735673D01*
X4240022Y6723735D01*
X4250791Y6712966D01*
X4262729Y6703618D01*
X4275734Y6695744D01*
X4289653Y6689496D01*
X4292803Y6687261D01*
X4294936Y6684009D01*
X4295648Y6680200D01*
X4295648Y4963668D01*
X4294886Y4959807D01*
X4292650Y4956505D01*
X4289399Y4954270D01*
X4285488Y4953508D01*
X4191508Y4953508D01*
X4183481Y4952746D01*
X4176268Y4950561D01*
X4169562Y4946954D01*
X4163364Y4941874D01*
X3753459Y4531969D01*
X3750106Y4529734D01*
X3746195Y4528972D01*
X3742283Y4529785D01*
X3735527Y4532630D01*
X3721354Y4536694D01*
X3706774Y4538980D01*
X3691991Y4539386D01*
X3677310Y4538065D01*
X3662883Y4534916D01*
X3648964Y4529988D01*
X3635756Y4523384D01*
X3623462Y4515256D01*
X3612235Y4505655D01*
X3602329Y4494733D01*
X3594658Y4483963D01*
X3591407Y4481017D01*
X3587242Y4479696D01*
X3582873Y4480306D01*
X3579215Y4482642D01*
X3516477Y4545380D01*
X3514090Y4549089D01*
X3513531Y4553458D01*
X3514851Y4557623D01*
X3517798Y4560874D01*
X3525520Y4566310D01*
X3532479Y4573219D01*
X3538118Y4581296D01*
X3542233Y4590186D01*
X3544773Y4599686D01*
X3545636Y4609439D01*
X3544773Y4619244D01*
X3542233Y4628743D01*
X3538118Y4637633D01*
X3532479Y4645660D01*
X3530904Y4647234D01*
X3528669Y4650536D01*
X3527907Y4654448D01*
X3527907Y5046776D01*
X3527094Y5054803D01*
X3524910Y5062016D01*
X3521354Y5068671D01*
X3516223Y5074920D01*
X2872841Y5718352D01*
X2870606Y5721705D01*
X2869844Y5725718D01*
X2870758Y5729681D01*
X2873603Y5736031D01*
X2878124Y5750560D01*
X2880868Y5765495D01*
X2881782Y5780684D01*
X2880868Y5795873D01*
X2878124Y5810808D01*
X2873603Y5825337D01*
X2867355Y5839206D01*
X2859481Y5852210D01*
X2850134Y5864148D01*
X2839364Y5874918D01*
X2827426Y5884265D01*
X2814421Y5892139D01*
X2800553Y5898388D01*
X2786024Y5902909D01*
X2771089Y5905652D01*
X2755900Y5906566D01*
X2740710Y5905652D01*
X2725775Y5902909D01*
X2711246Y5898388D01*
X2697378Y5892139D01*
X2684373Y5884265D01*
X2672435Y5874918D01*
X2661666Y5864148D01*
X2652318Y5852210D01*
X2644444Y5839206D01*
X2638196Y5825337D01*
X2633675Y5810808D01*
X2630932Y5795873D01*
X2630017Y5780684D01*
X2630932Y5765495D01*
X2633675Y5750560D01*
X2638196Y5736031D01*
X2644444Y5722162D01*
X2652318Y5709158D01*
X2661666Y5697220D01*
X2672435Y5686450D01*
X2684373Y5677052D01*
X2697378Y5669229D01*
X2711246Y5662980D01*
X2725775Y5658459D01*
X2740710Y5655716D01*
X2755900Y5654802D01*
X2771089Y5655716D01*
X2786024Y5658459D01*
X2800553Y5662980D01*
X2806852Y5665825D01*
X2810865Y5666740D01*
X2814828Y5665978D01*
X2818231Y5663742D01*
X2918815Y5563158D01*
X2921000Y5559958D01*
X2921812Y5556148D01*
X2921152Y5552338D01*
X2919120Y5549087D01*
X2916021Y5546801D01*
X2912262Y5545836D01*
X2910128Y5545683D01*
X2895193Y5542940D01*
X2880664Y5538419D01*
X2866796Y5532170D01*
X2853791Y5524347D01*
X2841853Y5514949D01*
X2831084Y5504180D01*
X2821736Y5492242D01*
X2813862Y5479237D01*
X2807614Y5465368D01*
X2803093Y5450840D01*
X2800350Y5435904D01*
X2799435Y5420715D01*
X2800350Y5405526D01*
X2803093Y5390591D01*
X2807614Y5376062D01*
X2813862Y5362194D01*
X2821736Y5349189D01*
X2831084Y5337251D01*
X2841853Y5326481D01*
X2853791Y5317134D01*
X2866796Y5309260D01*
X2880664Y5303012D01*
X2895193Y5298490D01*
X2910128Y5295747D01*
X2925318Y5294833D01*
X2940507Y5295747D01*
X2955442Y5298490D01*
X2969971Y5303012D01*
X2983839Y5309260D01*
X2996844Y5317134D01*
X3008782Y5326481D01*
X3019552Y5337251D01*
X3028899Y5349189D01*
X3036773Y5362194D01*
X3043021Y5376062D01*
X3047542Y5390591D01*
X3050286Y5405526D01*
X3050438Y5407660D01*
X3051403Y5411419D01*
X3053689Y5414518D01*
X3056940Y5416550D01*
X3060750Y5417210D01*
X3064560Y5416397D01*
X3067761Y5414213D01*
X3447694Y5034280D01*
X3449929Y5030978D01*
X3450691Y5027066D01*
X3450691Y4654448D01*
X3449929Y4650536D01*
X3447694Y4647234D01*
X3446119Y4645660D01*
X3440734Y4637938D01*
X3437483Y4634992D01*
X3433318Y4633671D01*
X3428949Y4634230D01*
X3425240Y4636617D01*
X2703423Y5358434D01*
X2701188Y5361787D01*
X2700426Y5365800D01*
X2701340Y5369763D01*
X2704185Y5376113D01*
X2708706Y5390642D01*
X2711450Y5405577D01*
X2712364Y5420766D01*
X2711450Y5435955D01*
X2708706Y5450890D01*
X2704185Y5465419D01*
X2697937Y5479288D01*
X2690063Y5492292D01*
X2680716Y5504230D01*
X2669946Y5515000D01*
X2658008Y5524347D01*
X2645003Y5532221D01*
X2631135Y5538470D01*
X2616606Y5542991D01*
X2601671Y5545734D01*
X2586482Y5546648D01*
X2571292Y5545734D01*
X2556357Y5542991D01*
X2541828Y5538470D01*
X2527960Y5532221D01*
X2514955Y5524347D01*
X2503068Y5515051D01*
X2499004Y5513120D01*
X2494483Y5513171D01*
X2490470Y5515152D01*
X2487676Y5518658D01*
X2486660Y5523077D01*
X2486660Y5670448D01*
X2487117Y5673445D01*
X2488438Y5676188D01*
X2490571Y5678424D01*
X2500782Y5686450D01*
X2511552Y5697220D01*
X2520899Y5709158D01*
X2528773Y5722162D01*
X2535021Y5736031D01*
X2539542Y5750560D01*
X2542286Y5765495D01*
X2543200Y5780684D01*
X2542286Y5795873D01*
X2539441Y5811266D01*
X2539390Y5814517D01*
X2540355Y5817666D01*
X2542286Y5820308D01*
X3376168Y6654190D01*
X3381298Y6660438D01*
X3384854Y6667093D01*
X3385616Y6669531D01*
X3387039Y6672478D01*
X3389376Y6674815D01*
X3407765Y6683044D01*
X3420770Y6690918D01*
X3432708Y6700266D01*
X3443478Y6711035D01*
X3452825Y6722973D01*
X3460699Y6735978D01*
X3466947Y6749846D01*
X3471468Y6764375D01*
X3474212Y6779310D01*
X3475126Y6794500D01*
X3474212Y6809689D01*
X3471468Y6824624D01*
X3466947Y6839153D01*
X3460699Y6853021D01*
X3452825Y6866026D01*
X3443478Y6877964D01*
X3432708Y6888734D01*
X3420770Y6898081D01*
X3407765Y6905955D01*
X3393897Y6912203D01*
X3379368Y6916724D01*
X3364433Y6919468D01*
X3349244Y6920382D01*
X3334054Y6919468D01*
X3319119Y6916724D01*
X3304590Y6912203D01*
X3290722Y6905955D01*
X3277717Y6898081D01*
X3265779Y6888734D01*
X3255010Y6877964D01*
X3245662Y6866026D01*
X3237788Y6853021D01*
X3231540Y6839153D01*
X3227019Y6824624D01*
X3224276Y6809689D01*
X3223361Y6794500D01*
X3224276Y6779310D01*
X3227019Y6764375D01*
X3231540Y6749846D01*
X3237788Y6735978D01*
X3245662Y6722973D01*
X3255010Y6711035D01*
X3265779Y6700266D01*
X3277717Y6690918D01*
X3282797Y6687820D01*
X3285540Y6685381D01*
X3287268Y6682181D01*
X3287674Y6678523D01*
X3286810Y6674967D01*
X3284728Y6671970D01*
X2499614Y5886805D01*
X2495804Y5884418D01*
X2491384Y5883910D01*
X2487168Y5885281D01*
X2475839Y5892139D01*
X2461971Y5898388D01*
X2447442Y5902909D01*
X2432507Y5905652D01*
X2417318Y5906566D01*
X2402128Y5905652D01*
X2387193Y5902909D01*
X2372664Y5898388D01*
X2358796Y5892139D01*
X2345791Y5884265D01*
X2333853Y5874918D01*
X2323084Y5864148D01*
X2313736Y5852210D01*
X2305862Y5839206D01*
X2299614Y5825337D01*
X2295093Y5810808D01*
X2292350Y5795873D01*
X2291435Y5780684D01*
X2292350Y5765495D01*
X2295093Y5750560D01*
X2299614Y5736031D01*
X2305862Y5722162D01*
X2313736Y5709158D01*
X2323084Y5697220D01*
X2333853Y5686450D01*
X2345791Y5677052D01*
X2358796Y5669229D01*
X2372664Y5662980D01*
X2387193Y5658459D01*
X2401112Y5655919D01*
X2404414Y5654700D01*
X2407107Y5652414D01*
X2408834Y5649366D01*
X2409444Y5645912D01*
X2409444Y4493006D01*
X2410256Y4484979D01*
X2412441Y4477715D01*
X2415997Y4471060D01*
X2421128Y4464812D01*
X2550668Y4335221D01*
X2552700Y4332376D01*
X2553614Y4328922D01*
X2554325Y4320946D01*
X2556865Y4311446D01*
X2561031Y4302556D01*
X2566670Y4294479D01*
X2573578Y4287570D01*
X2581656Y4281932D01*
X2590546Y4277766D01*
X2600045Y4275226D01*
G37*
G36*
X4453991Y4299762D02*
G01*
X4468774Y4300220D01*
X4483354Y4302506D01*
X4497527Y4306570D01*
X4511141Y4312310D01*
X4523892Y4319676D01*
X4535678Y4328566D01*
X4546295Y4338828D01*
X4555540Y4350359D01*
X4563313Y4362907D01*
X4569460Y4376318D01*
X4573930Y4390339D01*
X4576673Y4404868D01*
X4577588Y4419600D01*
X4576673Y4434332D01*
X4573930Y4448860D01*
X4569460Y4462881D01*
X4563313Y4476292D01*
X4555540Y4488840D01*
X4546295Y4500372D01*
X4535678Y4510633D01*
X4523892Y4519523D01*
X4511141Y4526889D01*
X4497527Y4532630D01*
X4483354Y4536694D01*
X4468774Y4538980D01*
X4453991Y4539386D01*
X4439310Y4538065D01*
X4424883Y4534916D01*
X4410964Y4529988D01*
X4397756Y4523384D01*
X4385462Y4515256D01*
X4374235Y4505655D01*
X4364329Y4494733D01*
X4355795Y4482693D01*
X4348784Y4469688D01*
X4343450Y4455922D01*
X4339894Y4441647D01*
X4338066Y4426966D01*
X4338066Y4412234D01*
X4339894Y4397552D01*
X4343450Y4383278D01*
X4348784Y4369511D01*
X4355795Y4356506D01*
X4364329Y4344466D01*
X4374235Y4333544D01*
X4385462Y4323943D01*
X4397756Y4315815D01*
X4410964Y4309211D01*
X4424883Y4304284D01*
X4439310Y4301134D01*
G37*
G36*
X4874260Y4337862D02*
G01*
X4874260Y4391660D01*
X4820513Y4391660D01*
X4823815Y4385056D01*
X4831943Y4372762D01*
X4841544Y4361535D01*
X4852466Y4351629D01*
X4864506Y4343095D01*
G37*
G36*
X4980940Y4337862D02*
G01*
X4990693Y4343095D01*
X5002733Y4351629D01*
X5013655Y4361535D01*
X5023256Y4372762D01*
X5031384Y4385056D01*
X5034686Y4391660D01*
X4980940Y4391660D01*
G37*
G36*
X4980940Y4498340D02*
G01*
X5034940Y4498340D01*
X5027523Y4511192D01*
X5018633Y4522978D01*
X5008372Y4533595D01*
X4996840Y4542840D01*
X4984292Y4550613D01*
X4980940Y4552137D01*
G37*
G36*
X4820259Y4498340D02*
G01*
X4874260Y4498340D01*
X4874260Y4552137D01*
X4870907Y4550613D01*
X4858359Y4542840D01*
X4846828Y4533595D01*
X4836566Y4522978D01*
X4827676Y4511192D01*
G37*
G36*
X2288286Y4641951D02*
G01*
X2298039Y4642815D01*
X2307539Y4645355D01*
X2316429Y4649520D01*
X2324506Y4655159D01*
X2331415Y4662068D01*
X2337054Y4670145D01*
X2341219Y4679035D01*
X2343759Y4688535D01*
X2344623Y4698288D01*
X2343759Y4708093D01*
X2341219Y4717592D01*
X2337054Y4726482D01*
X2331415Y4734509D01*
X2324506Y4741468D01*
X2316429Y4747107D01*
X2307539Y4751273D01*
X2298039Y4753813D01*
X2290013Y4754473D01*
X2286609Y4755388D01*
X2283714Y4757420D01*
X1454861Y5586323D01*
X1452626Y5589625D01*
X1451864Y5593486D01*
X1451864Y6667500D01*
X1452575Y6671309D01*
X1454708Y6674561D01*
X1457858Y6676796D01*
X1471777Y6683044D01*
X1484782Y6690918D01*
X1496720Y6700266D01*
X1507490Y6711035D01*
X1516837Y6722973D01*
X1524711Y6735978D01*
X1530959Y6749846D01*
X1535480Y6764375D01*
X1538224Y6779310D01*
X1539138Y6794500D01*
X1538224Y6809689D01*
X1535480Y6824624D01*
X1530959Y6839153D01*
X1524711Y6853021D01*
X1516837Y6866026D01*
X1507490Y6877964D01*
X1496720Y6888734D01*
X1484782Y6898081D01*
X1471777Y6905955D01*
X1457909Y6912203D01*
X1443380Y6916724D01*
X1428445Y6919468D01*
X1413256Y6920382D01*
X1398066Y6919468D01*
X1383131Y6916724D01*
X1368602Y6912203D01*
X1354734Y6905955D01*
X1341729Y6898081D01*
X1329791Y6888734D01*
X1319022Y6877964D01*
X1309674Y6866026D01*
X1301800Y6853021D01*
X1295552Y6839153D01*
X1291031Y6824624D01*
X1288288Y6809689D01*
X1287373Y6794500D01*
X1288288Y6779310D01*
X1291031Y6764375D01*
X1295552Y6749846D01*
X1301800Y6735978D01*
X1309674Y6722973D01*
X1319022Y6711035D01*
X1329791Y6700266D01*
X1341729Y6690918D01*
X1354734Y6683044D01*
X1368653Y6676796D01*
X1371803Y6674561D01*
X1373936Y6671309D01*
X1374648Y6667500D01*
X1374648Y5573826D01*
X1375460Y5565800D01*
X1377645Y5558536D01*
X1381201Y5551881D01*
X1386332Y5545632D01*
X2229104Y4702810D01*
X2231136Y4699965D01*
X2232050Y4696510D01*
X2232761Y4688535D01*
X2235301Y4679035D01*
X2239467Y4670145D01*
X2245106Y4662068D01*
X2252014Y4655159D01*
X2260092Y4649520D01*
X2268982Y4645355D01*
X2278481Y4642815D01*
G37*
G36*
X3691991Y4795062D02*
G01*
X3706774Y4795520D01*
X3721354Y4797806D01*
X3735527Y4801870D01*
X3749141Y4807610D01*
X3761892Y4814976D01*
X3773678Y4823866D01*
X3784295Y4834128D01*
X3793540Y4845659D01*
X3801313Y4858207D01*
X3807460Y4871618D01*
X3811930Y4885639D01*
X3814673Y4900168D01*
X3815587Y4914900D01*
X3814673Y4929632D01*
X3811930Y4944160D01*
X3807460Y4958181D01*
X3801313Y4971592D01*
X3793540Y4984140D01*
X3784295Y4995672D01*
X3773678Y5005933D01*
X3761892Y5014823D01*
X3749141Y5022189D01*
X3740505Y5025847D01*
X3737254Y5028082D01*
X3735070Y5031333D01*
X3734308Y5035194D01*
X3734308Y5302605D01*
X3735070Y5306466D01*
X3737254Y5309717D01*
X3740505Y5311952D01*
X3749141Y5315610D01*
X3761892Y5322976D01*
X3773678Y5331866D01*
X3784295Y5342128D01*
X3793540Y5353659D01*
X3801313Y5366207D01*
X3807460Y5379618D01*
X3811930Y5393639D01*
X3814673Y5408168D01*
X3815587Y5422900D01*
X3814673Y5437632D01*
X3811930Y5452160D01*
X3807460Y5466181D01*
X3801313Y5479592D01*
X3793540Y5492140D01*
X3784295Y5503672D01*
X3773678Y5513933D01*
X3761892Y5522823D01*
X3749141Y5530189D01*
X3735527Y5535930D01*
X3721354Y5539994D01*
X3706774Y5542280D01*
X3691991Y5542686D01*
X3677310Y5541365D01*
X3662883Y5538216D01*
X3648964Y5533288D01*
X3635756Y5526684D01*
X3623462Y5518556D01*
X3612235Y5508955D01*
X3602329Y5498033D01*
X3593795Y5485993D01*
X3586784Y5472988D01*
X3581450Y5459222D01*
X3577894Y5444947D01*
X3576065Y5430266D01*
X3576065Y5415534D01*
X3577894Y5400852D01*
X3581450Y5386578D01*
X3586784Y5372811D01*
X3593795Y5359806D01*
X3602329Y5347766D01*
X3612235Y5336844D01*
X3623462Y5327243D01*
X3635756Y5319115D01*
X3653840Y5309920D01*
X3656228Y5306517D01*
X3657092Y5302453D01*
X3657092Y5035346D01*
X3656228Y5031282D01*
X3653840Y5027879D01*
X3635756Y5018684D01*
X3623462Y5010556D01*
X3612235Y5000955D01*
X3602329Y4990033D01*
X3593795Y4977993D01*
X3586784Y4964988D01*
X3581450Y4951222D01*
X3577894Y4936947D01*
X3576065Y4922266D01*
X3576065Y4907534D01*
X3577894Y4892852D01*
X3581450Y4878578D01*
X3586784Y4864811D01*
X3593795Y4851806D01*
X3602329Y4839766D01*
X3612235Y4828844D01*
X3623462Y4819243D01*
X3635756Y4811115D01*
X3648964Y4804511D01*
X3662883Y4799584D01*
X3677310Y4796434D01*
G37*
G36*
X4874260Y5099862D02*
G01*
X4874260Y5153660D01*
X4820513Y5153660D01*
X4823815Y5147056D01*
X4831943Y5134762D01*
X4841544Y5123535D01*
X4852466Y5113629D01*
X4864506Y5105095D01*
G37*
G36*
X4980940Y5099862D02*
G01*
X4990693Y5105095D01*
X5002733Y5113629D01*
X5013655Y5123535D01*
X5023256Y5134762D01*
X5031384Y5147056D01*
X5034686Y5153660D01*
X4980940Y5153660D01*
G37*
G36*
X4980940Y5260340D02*
G01*
X5034940Y5260340D01*
X5027523Y5273192D01*
X5018633Y5284978D01*
X5008372Y5295595D01*
X4996840Y5304840D01*
X4984292Y5312613D01*
X4980940Y5314137D01*
G37*
G36*
X4820259Y5260340D02*
G01*
X4874260Y5260340D01*
X4874260Y5314137D01*
X4870907Y5312613D01*
X4858359Y5304840D01*
X4846828Y5295595D01*
X4836566Y5284978D01*
X4827676Y5273192D01*
G37*
G36*
X2995066Y5654751D02*
G01*
X3193897Y5654751D01*
X3200247Y5655462D01*
X3205683Y5657392D01*
X3210610Y5660491D01*
X3214674Y5664555D01*
X3217773Y5669483D01*
X3219653Y5674918D01*
X3220415Y5681268D01*
X3220415Y5880100D01*
X3219653Y5886450D01*
X3217773Y5891885D01*
X3214674Y5896813D01*
X3210610Y5900877D01*
X3205683Y5903976D01*
X3200247Y5905855D01*
X3193897Y5906566D01*
X2995066Y5906566D01*
X2988716Y5905855D01*
X2983280Y5903976D01*
X2978353Y5900877D01*
X2974289Y5896813D01*
X2971190Y5891885D01*
X2969310Y5886450D01*
X2968548Y5880100D01*
X2968548Y5681268D01*
X2969310Y5674918D01*
X2971190Y5669483D01*
X2974289Y5664555D01*
X2978353Y5660491D01*
X2983280Y5657392D01*
X2988716Y5655462D01*
G37*
G36*
X3691991Y5811062D02*
G01*
X3706774Y5811520D01*
X3721354Y5813806D01*
X3735527Y5817870D01*
X3749141Y5823610D01*
X3761892Y5830976D01*
X3773678Y5839866D01*
X3784295Y5850128D01*
X3793540Y5861659D01*
X3801313Y5874207D01*
X3807460Y5887618D01*
X3811930Y5901639D01*
X3814673Y5916168D01*
X3815587Y5930900D01*
X3814673Y5945632D01*
X3811930Y5960160D01*
X3807460Y5974181D01*
X3801313Y5987592D01*
X3793540Y6000140D01*
X3784295Y6011672D01*
X3773678Y6021933D01*
X3761892Y6030823D01*
X3749141Y6038189D01*
X3735527Y6043930D01*
X3721354Y6047994D01*
X3706774Y6050280D01*
X3691991Y6050686D01*
X3677310Y6049365D01*
X3662883Y6046216D01*
X3648964Y6041288D01*
X3635756Y6034684D01*
X3623462Y6026556D01*
X3612235Y6016955D01*
X3602329Y6006033D01*
X3593795Y5993993D01*
X3586784Y5980988D01*
X3581450Y5967222D01*
X3577894Y5952947D01*
X3576065Y5938266D01*
X3576065Y5923534D01*
X3577894Y5908852D01*
X3581450Y5894578D01*
X3586784Y5880811D01*
X3593795Y5867806D01*
X3602329Y5855766D01*
X3612235Y5844844D01*
X3623462Y5835243D01*
X3635756Y5827115D01*
X3648964Y5820511D01*
X3662883Y5815584D01*
X3677310Y5812434D01*
G37*
G36*
X4511040Y5823559D02*
G01*
X4523892Y5830976D01*
X4535678Y5839866D01*
X4546295Y5850128D01*
X4555540Y5861659D01*
X4563313Y5874207D01*
X4564837Y5877560D01*
X4511040Y5877560D01*
G37*
G36*
X4511040Y5984240D02*
G01*
X4564837Y5984240D01*
X4563313Y5987592D01*
X4555540Y6000140D01*
X4546295Y6011672D01*
X4535678Y6021933D01*
X4523892Y6030823D01*
X4511040Y6038240D01*
G37*
G36*
X2848356Y6668617D02*
G01*
X2863545Y6669531D01*
X2878480Y6672275D01*
X2893009Y6676796D01*
X2906877Y6683044D01*
X2919882Y6690918D01*
X2931820Y6700266D01*
X2942590Y6711035D01*
X2951937Y6722973D01*
X2959811Y6735978D01*
X2966059Y6749846D01*
X2970580Y6764375D01*
X2973324Y6779310D01*
X2974238Y6794500D01*
X2973324Y6809689D01*
X2970580Y6824624D01*
X2966059Y6839153D01*
X2959811Y6853021D01*
X2951937Y6866026D01*
X2942590Y6877964D01*
X2931820Y6888734D01*
X2919882Y6898081D01*
X2906877Y6905955D01*
X2893009Y6912203D01*
X2878480Y6916724D01*
X2863545Y6919468D01*
X2848356Y6920382D01*
X2833166Y6919468D01*
X2818231Y6916724D01*
X2803702Y6912203D01*
X2789834Y6905955D01*
X2776829Y6898081D01*
X2764891Y6888734D01*
X2754122Y6877964D01*
X2744774Y6866026D01*
X2736900Y6853021D01*
X2730652Y6839153D01*
X2726131Y6824624D01*
X2723388Y6809689D01*
X2722473Y6794500D01*
X2723388Y6779310D01*
X2726131Y6764375D01*
X2730652Y6749846D01*
X2736900Y6735978D01*
X2744774Y6722973D01*
X2754122Y6711035D01*
X2764891Y6700266D01*
X2776829Y6690918D01*
X2789834Y6683044D01*
X2803702Y6676796D01*
X2818231Y6672275D01*
X2833166Y6669531D01*
G37*
G36*
X1970481Y6682079D02*
G01*
X1972665Y6683044D01*
X1985670Y6690918D01*
X1997608Y6700266D01*
X2008378Y6711035D01*
X2017725Y6722973D01*
X2025599Y6735978D01*
X2026564Y6738162D01*
X1970481Y6738162D01*
G37*
G36*
X1857806Y6682079D02*
G01*
X1857806Y6738162D01*
X1801723Y6738162D01*
X1802688Y6735978D01*
X1810562Y6722973D01*
X1819910Y6711035D01*
X1830679Y6700266D01*
X1842617Y6690918D01*
X1855622Y6683044D01*
G37*
G36*
X4891481Y6694779D02*
G01*
X4893665Y6695744D01*
X4906670Y6703618D01*
X4918608Y6712966D01*
X4929378Y6723735D01*
X4938725Y6735673D01*
X4946599Y6748678D01*
X4947564Y6750862D01*
X4891481Y6750862D01*
G37*
G36*
X4778806Y6694779D02*
G01*
X4778806Y6750862D01*
X4722723Y6750862D01*
X4723688Y6748678D01*
X4731562Y6735673D01*
X4740910Y6723735D01*
X4751679Y6712966D01*
X4763617Y6703618D01*
X4776622Y6695744D01*
G37*
G36*
X1970481Y6850837D02*
G01*
X2026564Y6850837D01*
X2025599Y6853021D01*
X2017725Y6866026D01*
X2008378Y6877964D01*
X1997608Y6888734D01*
X1985670Y6898081D01*
X1972665Y6905955D01*
X1970481Y6906920D01*
G37*
G36*
X1801723Y6850837D02*
G01*
X1857806Y6850837D01*
X1857806Y6906920D01*
X1855622Y6905955D01*
X1842617Y6898081D01*
X1830679Y6888734D01*
X1819910Y6877964D01*
X1810562Y6866026D01*
X1802688Y6853021D01*
G37*
G36*
X4722723Y6863537D02*
G01*
X4778806Y6863537D01*
X4778806Y6919620D01*
X4776622Y6918655D01*
X4763617Y6910781D01*
X4751679Y6901434D01*
X4740910Y6890664D01*
X4731562Y6878726D01*
X4723688Y6865721D01*
G37*
G36*
X4891481Y6863537D02*
G01*
X4947564Y6863537D01*
X4946599Y6865721D01*
X4938725Y6878726D01*
X4929378Y6890664D01*
X4918608Y6901434D01*
X4906670Y6910781D01*
X4893665Y6918655D01*
X4891481Y6919620D01*
G37*

%LPD*%
D10*
X4457700Y5930912D02*
G01*
X4835141Y6308359D01*
X4835141Y6807212D01*
X4927600Y5207012D02*
G01*
X4457700Y5676912D01*
X4457700Y5930912D01*
X4927600Y5207012D02*
G01*
X4927600Y4445012D01*
X1413253Y6794512D02*
G01*
X1413253Y5573303D01*
X2288258Y4698298D01*
X2755900Y5780669D02*
G01*
X3489299Y5047269D01*
X3489299Y4609454D01*
X2448049Y5780669D02*
G01*
X2448049Y4492482D01*
X2609824Y4330712D01*
X3349241Y6794512D02*
G01*
X3349241Y6681861D01*
X2448049Y5780669D01*
X2417315Y5780669D02*
G01*
X2448049Y5780669D01*
X4334258Y4914912D02*
G01*
X4457700Y4914912D01*
X3695700Y4419612D02*
G01*
X4191000Y4914912D01*
X4334258Y4914912D01*
X4334258Y4914912D02*
G01*
X4334258Y6807212D01*
X2586484Y5420753D02*
G01*
X3587625Y4419612D01*
X3695700Y4419612D01*
X3695700Y4914912D02*
G01*
X3695700Y5422912D01*
D11*
G01*
X1914144Y6794500D03*
G01*
X1413255Y6794500D03*
G01*
X3349243Y6794500D03*
G01*
X2848356Y6794500D03*
G01*
X4835143Y6807200D03*
G01*
X4334256Y6807200D03*
D12*
G01*
X3695700Y5930900D03*
G01*
X4457700Y5930900D03*
G01*
X3695700Y5422900D03*
G01*
X4457700Y5422900D03*
G01*
X3695700Y4914900D03*
G01*
X4457700Y4914900D03*
G01*
X3695700Y4419600D03*
G01*
X4457700Y4419600D03*
G01*
X4927600Y4445000D03*
G01*
X4927600Y5207000D03*
D13*
G01*
X3094481Y5780684D03*
D11*
G01*
X2925318Y5420715D03*
G01*
X2755900Y5780684D03*
G01*
X2586481Y5420766D03*
G01*
X2417318Y5780684D03*
D14*
G01*
X2288260Y4698288D03*
G01*
X3489299Y4609439D03*
G01*
X2609824Y4330700D03*
M02*
